<?xml version="1.0" encoding="UTF-8"?>
<svg width="128" height="128" version="1.1" viewBox="0 0 128 128" xmlns="http://www.w3.org/2000/svg">
  <defs>
    <linearGradient id="grad1" x1="0%" y1="0%" x2="0%" y2="100%">
      <stop offset="0%" style="stop-color:#25D366;stop-opacity:1" />
      <stop offset="100%" style="stop-color:#128C7E;stop-opacity:1" />
    </linearGradient>
  </defs>
  
  <!-- Background circle -->
  <circle cx="64" cy="64" r="60" fill="url(#grad1)"/>
  
  <!-- Phone icon -->
  <path d="M 45 35 Q 42 35 40 37 L 35 42 Q 33 44 33 47 Q 33 60 55 82 Q 77 104 90 104 Q 93 104 95 102 L 100 97 Q 102 95 102 92 Q 102 90 100 88 L 90 78 Q 88 76 85 76 Q 83 76 81 78 L 75 84 Q 55 72 47 52 L 53 46 Q 55 44 55 41 Q 55 38 53 36 L 43 26 Q 41 24 38 24 Q 36 24 35 26 Z" 
        fill="white" 
        stroke="white" 
        stroke-width="2"/>
  
  <!-- Chat bubble -->
  <path d="M 85 40 Q 95 40 100 45 Q 105 50 105 60 Q 105 70 100 75 Q 95 80 85 80 L 75 80 L 70 90 L 70 80 L 65 80 Q 55 80 50 75 Q 45 70 45 60 Q 45 50 50 45 Q 55 40 65 40 Z" 
        fill="white" 
        opacity="0.9"/>
  
  <!-- Dots in chat bubble -->
  <circle cx="70" cy="60" r="3" fill="#25D366"/>
  <circle cx="80" cy="60" r="3" fill="#25D366"/>
  <circle cx="90" cy="60" r="3" fill="#25D366"/>
</svg>
